<?xml version="1.0" encoding="iso-8859-1"?>
<!-- Generator: Adobe Illustrator 19.0.0, SVG Export Plug-In . SVG Version: 6.00 Build 0)  -->
<svg version="1.1" id="Layer_1" xmlns="http://www.w3.org/2000/svg" xmlns:xlink="http://www.w3.org/1999/xlink" x="0px" y="0px"
	 viewBox="0 0 512.744 512.744" style="enable-background:new 0 0 512.744 512.744;" xml:space="preserve">
<rect y="483.705" style="fill:#CDD6E0;" width="512" height="28.8"/>
<rect x="37.333" y="212.772" style="fill:#F2F2F2;" width="438.4" height="299.733"/>
<rect x="90.667" y="287.439" style="fill:#4CDBC4;" width="331.733" height="225.067"/>
<rect x="77.867" y="266.105" style="fill:#3DC9AE;" width="356.267" height="21.333"/>
<path style="fill:#40596B;" d="M249.6,2.639l-244.267,192c-8.533,6.4-4.267,19.2,6.4,19.2h489.6c10.667,0,16-12.8,6.4-19.2
	l-244.267-192C259.2-0.561,252.8-0.561,249.6,2.639z"/>
<rect x="37.333" y="212.772" style="fill:#E4EAEF;" width="438.4" height="16"/>
<g>
	<path style="fill:#F2F2F2;" d="M147.2,401.572h-25.6c-6.4,0-11.733-5.333-11.733-11.733v-5.333c0-6.4,5.333-11.733,11.733-11.733
		h13.867c6.4,0,11.733,5.333,11.733,11.733V401.572z"/>
	<path style="fill:#F2F2F2;" d="M364.8,401.572h25.6c6.4,0,11.733-5.333,11.733-11.733v-5.333c0-6.4-5.333-11.733-11.733-11.733
		h-13.867c-6.4,0-11.733,5.333-11.733,11.733L364.8,401.572L364.8,401.572z"/>
</g>
<path style="fill:#FF7058;" d="M375.467,413.305H136.533l22.4-72.533c3.2-11.733,14.933-20.267,26.667-20.267h138.667
	c12.8,0,23.467,8.533,26.667,20.267L375.467,413.305z"/>
<path style="fill:#54C0EB;" d="M155.733,406.905l18.133-64c2.133-5.333,7.467-9.6,13.867-9.6H326.4
	c6.4,0,11.733,4.267,13.867,10.667l18.133,64H155.733V406.905z"/>
<g>
	<polygon style="fill:#84DBFF;" points="262.4,332.239 188.8,406.905 174.933,406.905 249.6,332.239 	"/>
	<polygon style="fill:#84DBFF;" points="293.333,332.239 218.667,406.905 197.333,406.905 272,332.239 	"/>
</g>
<path style="fill:#FF7058;" d="M391.467,478.372H120.533c-2.133,0-3.2-1.067-3.2-3.2v-39.467c-1.067-29.867,23.467-38.4,54.4-45.867
	c55.467-12.8,113.067-12.8,167.467,0c32,8.533,55.467,16,54.4,45.867v39.467C394.667,477.305,392.533,478.372,391.467,478.372z"/>
<g>
	<path style="fill:#40596B;" d="M160,507.172h-23.467c-6.4,0-10.667-4.267-10.667-10.667v-18.133h44.8v18.133
		C170.667,502.905,166.4,507.172,160,507.172z"/>
	<path style="fill:#40596B;" d="M375.467,507.172H352c-6.4,0-10.667-4.267-10.667-10.667v-18.133h44.8v18.133
		C386.133,502.905,381.867,507.172,375.467,507.172z"/>
</g>
<g>
	<rect x="125.867" y="478.372" style="fill:#334A5E;" width="44.8" height="7.467"/>
	<rect x="341.333" y="478.372" style="fill:#334A5E;" width="44.8" height="7.467"/>
</g>
<g>
	<path style="fill:#FFD15C;" d="M174.933,462.372h-23.467c-11.733,0-21.333-9.6-21.333-21.333l0,0c0-9.6,8.533-17.067,18.133-14.933
		l29.867,6.4c7.467,1.067,12.8,7.467,12.8,14.933l0,0C189.867,455.972,183.467,462.372,174.933,462.372z"/>
	<path style="fill:#FFD15C;" d="M337.067,462.372h23.467c11.733,0,21.333-9.6,21.333-21.333l0,0c0-9.6-8.533-17.067-18.133-14.933
		l-29.867,6.4c-7.467,1.067-12.8,7.467-12.8,14.933l0,0C322.133,455.972,328.533,462.372,337.067,462.372z"/>
</g>
<path style="fill:#F1543F;" d="M286.933,459.172h-60.8c-8.533,0-16-7.467-16-16l0,0c0-8.533,7.467-16,16-16h60.8
	c8.533,0,16,7.467,16,16l0,0C301.867,452.772,295.467,459.172,286.933,459.172z"/>
<g>
</g>
<g>
</g>
<g>
</g>
<g>
</g>
<g>
</g>
<g>
</g>
<g>
</g>
<g>
</g>
<g>
</g>
<g>
</g>
<g>
</g>
<g>
</g>
<g>
</g>
<g>
</g>
<g>
</g>
</svg>
