<?xml version="1.0" encoding="iso-8859-1"?>
<!-- Generator: Adobe Illustrator 19.0.0, SVG Export Plug-In . SVG Version: 6.00 Build 0)  -->
<svg version="1.1" id="Layer_1" xmlns="http://www.w3.org/2000/svg" xmlns:xlink="http://www.w3.org/1999/xlink" x="0px" y="0px"
	 viewBox="0 0 512 512" style="enable-background:new 0 0 512 512;" xml:space="preserve">
<circle style="fill:#40596B;" cx="256" cy="256" r="256"/>
<circle style="fill:#334A5E;" cx="256" cy="256" r="161.067"/>
<circle style="fill:#F2F2F2;" cx="256" cy="256" r="144"/>
<path style="fill:#334A5E;" d="M256,372.267C192,372.267,139.733,320,139.733,256S192,139.733,256,139.733S372.267,192,372.267,256
	S320,372.267,256,372.267z"/>
<path style="fill:#ACB3BA;" d="M346.667,229.333l19.2-10.667c-4.267-12.8-10.667-24.533-19.2-35.2L320,197.333
	c-20.267,10.667-44.8-3.2-44.8-26.667V140.8c-6.4-1.067-12.8-2.133-20.267-2.133c-6.4,0-13.867,1.067-20.267,2.133v29.867
	c0,23.467-24.533,37.333-44.8,26.667L163.2,183.467c-8.533,10.667-14.933,22.4-19.2,35.2l19.2,10.667
	c21.333,11.733,21.333,41.6,0,53.333L144,293.333c4.267,12.8,10.667,24.533,19.2,35.2l26.667-13.867
	c20.267-10.667,44.8,3.2,44.8,26.667V371.2c6.4,1.067,12.8,2.133,20.267,2.133c6.4,0,13.867-1.067,20.267-2.133v-29.867
	c0-23.467,24.533-37.333,44.8-26.667l26.667,13.867c8.533-10.667,14.933-22.4,19.2-35.2l-19.2-10.667
	C325.333,270.933,325.333,241.067,346.667,229.333z"/>
<g>
</g>
<g>
</g>
<g>
</g>
<g>
</g>
<g>
</g>
<g>
</g>
<g>
</g>
<g>
</g>
<g>
</g>
<g>
</g>
<g>
</g>
<g>
</g>
<g>
</g>
<g>
</g>
<g>
</g>
</svg>
